<svg width="17" height="17" viewBox="0 0 17 17" fill="none" xmlns="http://www.w3.org/2000/svg">
<path d="M11.4784 5.40357L9.34716 3.27235L13.6264 1.24182L13.9284 4.19532L11.4784 5.40357ZM12.9639 6.68767C12.7567 6.64829 12.5859 6.55029 12.4517 6.39367L12.2168 6.14195L14.0459 5.26932L14.0795 5.60495C14.113 5.81751 14.0824 6.0162 13.9875 6.20102C13.8926 6.38583 13.7499 6.52277 13.5593 6.61182C13.3686 6.70087 13.1701 6.72616 12.9639 6.68767ZM1.3425 5.03438C1.3425 4.29601 1.55238 3.71985 1.97213 3.30592C2.39189 2.89198 2.98192 2.68501 3.74222 2.68501C4.53653 2.68501 5.31406 2.83604 6.07481 3.1381C6.83556 3.44017 7.50122 3.87648 8.07178 4.44704C8.41859 4.79385 8.6956 5.18542 8.90279 5.62173C9.10998 6.05804 9.21335 6.52232 9.21291 7.01457C9.21291 7.37257 9.15988 7.71938 9.05382 8.05501C8.94776 8.39063 8.78264 8.69829 8.55844 8.97798L13.4082 13.8278L12.4685 14.7675L7.61869 9.91773C7.32781 10.1303 7.01747 10.2952 6.68766 10.4124C6.35786 10.5297 6.01373 10.5829 5.65528 10.5722C5.11828 10.561 4.61216 10.4324 4.13691 10.1862C3.66167 9.9401 3.24482 9.61007 2.88638 9.19613C2.38294 8.62557 1.99965 7.98229 1.73652 7.26629C1.47339 6.55029 1.34205 5.80632 1.3425 5.03438Z" fill="white"/>
</svg>
