<svg width="20" height="20" viewBox="0 0 20 20" fill="none" xmlns="http://www.w3.org/2000/svg">
<path d="M1.86991 11.6909C2.34937 11.5151 2.84482 11.4272 3.37223 11.4272C4.44303 11.4272 5.37799 11.7628 6.1771 12.4341L3.6679 14.9433C2.83521 14.0056 2.2211 12.8948 1.86991 11.6909ZM12.4341 7.83124C14.0083 9.00592 15.7104 9.2936 17.5324 8.69427C17.5564 8.86209 17.5804 9.16575 17.5804 9.58927C17.5804 10.4124 17.3806 11.3313 17.005 12.3462C16.6294 13.3531 16.1659 14.1682 15.6225 14.7835L10.5642 9.7411L12.4341 7.83124ZM7.00817 13.2971C7.85522 14.5198 8.03103 15.8543 7.52759 17.3086C6.39286 16.981 5.37799 16.4696 4.53094 15.7664L7.00817 13.2971ZM9.74111 10.5642L14.7835 15.6225C13.0494 17.1408 11.0117 17.7801 8.69428 17.5324C8.8621 17.005 8.95 16.4296 8.95 15.8063C8.95 15.3109 8.83812 14.7275 8.61437 14.0643C8.39062 13.401 8.12692 12.8576 7.83125 12.4341L9.74111 10.5642ZM7.04013 11.587C6.31179 10.936 5.41919 10.4966 4.45902 10.3165C3.48411 10.1327 2.54915 10.1886 1.64616 10.4923C1.62219 10.3165 1.59821 10.0128 1.59821 9.58927C1.59821 8.76619 1.79799 7.84722 2.17357 6.83235C2.54915 5.82548 3.01263 5.01039 3.55603 4.39508L8.87808 9.7411L7.04013 11.587ZM12.4341 6.17709C11.3633 4.85856 11.1156 3.42017 11.6909 1.8699C12.1864 1.99776 12.7537 2.23749 13.393 2.60508C14.0243 2.96467 14.5437 3.32427 14.9433 3.66789L12.4341 6.17709ZM17.3087 7.49561C16.8292 7.66342 16.3337 7.75133 15.8063 7.75133C14.9353 7.75133 14.0962 7.49561 13.2971 6.9682L15.7664 4.53093C16.4696 5.40994 16.981 6.39284 17.3087 7.49561ZM9.74111 8.87807L4.39509 3.55601C6.12915 2.03771 8.16687 1.39842 10.4923 1.64615C10.3165 2.17356 10.2286 2.74892 10.2286 3.37222C10.2286 3.94758 10.3564 4.59485 10.6201 5.32204C10.8838 6.04124 11.1875 6.61659 11.5871 7.04012L9.74111 8.87807Z" fill="white"/>
</svg>
