<svg width="24" height="24" viewBox="0 0 24 24" fill="none" xmlns="http://www.w3.org/2000/svg">
<path d="M8.07 10C7.86081 8.55023 8.11169 7.07136 8.78729 5.77169C9.4629 4.47201 10.5292 3.41702 11.836 2.7553C13.1428 2.09359 14.6242 1.85848 16.0717 2.08311C17.5192 2.30774 18.8597 2.98077 19.9045 4.00743C20.9493 5.03408 21.6457 6.36262 21.8956 7.80592C22.1455 9.24923 21.9364 10.7346 21.2977 12.0528C20.6589 13.3709 19.6228 14.4555 18.3351 15.1538C17.0475 15.8521 15.5732 16.1288 14.12 15.945" stroke="black" stroke-width="1.5" stroke-linecap="round"/>
<path d="M18.868 10C19.203 8.69 18.893 7.018 18 6" stroke="black" stroke-width="1.5" stroke-linecap="round"/>
<path d="M2 19.097L10.225 11.557M10.225 11.557C11.677 11.354 12.605 12.322 12.605 13.599M10.225 11.557L12.605 9.375C12.8769 9.12797 13.2335 8.99508 13.6008 9.00389C13.9681 9.0127 14.3179 9.16253 14.5777 9.42232C14.8375 9.6821 14.9873 10.0319 14.9961 10.3992C15.0049 10.7665 14.872 11.1231 14.625 11.395L12.605 13.599M4.903 22L12.605 13.599" stroke="black" stroke-width="1.5" stroke-linecap="round" stroke-linejoin="round"/>
</svg>
