<svg width="20" height="20" viewBox="0 0 20 20" fill="none" xmlns="http://www.w3.org/2000/svg">
<path d="M10.5 2C10.3674 2 10.2402 2.05268 10.1464 2.14645C10.0527 2.24021 10 2.36739 10 2.5V5.1C10 6.477 10.927 7.636 12.19 7.99C11.97 10.73 11.178 12.775 10.529 14.036C10.713 14.252 10.886 14.413 11.021 14.526C11.54 14.96 12 15.667 12 16.549C12.0007 17.0711 11.8338 17.5797 11.524 18H17C17.3978 18 17.7794 17.842 18.0607 17.5607C18.342 17.2794 18.5 16.8978 18.5 16.5V16.193C18.5 15.845 18.381 15.524 18.198 15.261C17.658 14.484 16.129 11.971 15.809 7.989C16.4394 7.81246 16.9947 7.43457 17.3903 6.91295C17.7859 6.39134 18 5.75465 18 5.1V2.5C18 2.36739 17.9473 2.24021 17.8536 2.14645C17.7598 2.05268 17.6326 2 17.5 2H16.75C16.5511 2 16.3603 2.07902 16.2197 2.21967C16.079 2.36032 16 2.55109 16 2.75V3.5C16.0001 3.56566 15.9873 3.6307 15.9623 3.69142C15.9373 3.75213 15.9006 3.80732 15.8543 3.85385C15.7607 3.9478 15.6336 4.00073 15.501 4.001C15.3684 4.00127 15.2411 3.94884 15.1472 3.85526C15.0532 3.76168 15.0003 3.63461 15 3.502V3.5L14.996 2.746C14.9949 2.54778 14.9155 2.35804 14.7749 2.21825C14.6344 2.07847 14.4442 2 14.246 2H13.754C13.5558 2 13.3656 2.07847 13.2251 2.21825C13.0845 2.35804 13.0051 2.54778 13.004 2.746L13 3.503C12.9996 3.63561 12.9465 3.76263 12.8525 3.85611C12.7584 3.9496 12.6311 4.0019 12.4985 4.0015C12.3659 4.0011 12.2389 3.94804 12.1454 3.85399C12.0519 3.75994 11.9996 3.63261 12 3.5V2.75C12 2.55109 11.921 2.36032 11.7803 2.21967C11.6397 2.07902 11.4489 2 11.25 2H10.5ZM6.5 5C5.92088 5.00001 5.35414 5.16765 4.86819 5.48266C4.38224 5.79768 3.99786 6.24662 3.76144 6.77529C3.52502 7.30395 3.44667 7.88975 3.53585 8.46196C3.62503 9.03418 3.87792 9.56835 4.264 10H4C3.73478 10 3.48043 10.1054 3.29289 10.2929C3.10536 10.4804 3 10.7348 3 11C3 11.2652 3.10536 11.5196 3.29289 11.7071C3.48043 11.8946 3.73478 12 4 12H4.52C4.148 13.798 3.167 14.836 2.62 15.293C2.274 15.583 2 16.029 2 16.549C2 17.35 2.65 18 3.451 18H9.55C10.35 18 11 17.35 11 16.549C11 16.029 10.726 15.583 10.38 15.293C9.833 14.836 8.852 13.798 8.48 12H9C9.26522 12 9.51957 11.8946 9.70711 11.7071C9.89464 11.5196 10 11.2652 10 11C10 10.7348 9.89464 10.4804 9.70711 10.2929C9.51957 10.1054 9.26522 10 9 10H8.736C9.12208 9.56835 9.37497 9.03418 9.46415 8.46196C9.55333 7.88975 9.47498 7.30395 9.23856 6.77529C9.00214 6.24662 8.61776 5.79768 8.13181 5.48266C7.64586 5.16765 7.07912 5.00001 6.5 5Z" fill="black"/>
</svg>
