<svg width="17" height="17" viewBox="0 0 17 17" fill="none" xmlns="http://www.w3.org/2000/svg">
<path d="M4.03571 5.81534C3.98874 5.48854 3.88741 5.1 3.76595 4.63563L3.40358 3.24253L3.39687 3.2177C3.87551 2.75614 4.42009 2.36828 5.01276 2.06684L6.10792 2.8976C6.48371 3.18213 6.7991 3.4217 7.07893 3.58678C7.22522 3.67401 7.37218 3.74649 7.52585 3.79883V5.82675C7.44354 5.86522 7.36503 5.91354 7.29031 5.9717L5.99384 6.99103C5.94638 7.02888 5.90154 7.06991 5.85963 7.11383L4.06188 6.33474C4.07114 6.16114 4.06281 5.98706 4.03571 5.81534ZM2.71441 6.84675C2.51645 7.0172 2.23796 7.20711 1.81855 7.49163L1.34613 7.81307C1.39135 6.49271 1.82686 5.21538 2.59764 4.14241L2.78554 4.86245C2.91505 5.36104 3.00095 5.69455 3.0392 5.95962C3.0761 6.21193 3.06067 6.35017 3.01906 6.46157C2.9788 6.57229 2.9023 6.68503 2.71441 6.84675ZM3.55725 11.3307C4.02363 11.3307 4.4162 11.3307 4.73763 11.3683C4.90674 11.3884 5.06846 11.42 5.2228 11.4716L6.17234 10.2289C6.13796 10.1607 6.10944 10.0898 6.08712 10.0168L5.57645 8.32105C5.55241 8.23801 5.53645 8.15284 5.5288 8.06672L3.69884 7.27488C3.60023 7.39637 3.49036 7.50826 3.3707 7.60907C3.12375 7.82179 2.79628 8.04391 2.40706 8.30897L1.40585 8.98875C1.5199 9.81185 1.78736 10.6062 2.19434 11.3307H3.55725ZM7.91305 6.76287C7.94615 6.73619 7.98731 6.72152 8.02981 6.72126C8.07052 6.72126 8.10967 6.73513 8.14725 6.76287L9.44372 7.78153C9.47951 7.80926 9.50434 7.8464 9.51821 7.89292C9.53181 7.93823 9.53181 7.98652 9.51821 8.03183L9.00955 9.72691C8.99712 9.7701 8.97184 9.80848 8.93708 9.83696C8.90345 9.8647 8.86122 9.87988 8.81763 9.87991H7.24267C7.199 9.87969 7.15676 9.86427 7.12322 9.83629C7.08857 9.80799 7.0633 9.76985 7.05075 9.72691L6.54142 8.03183C6.52782 7.98652 6.52782 7.93823 6.54142 7.89292C6.55433 7.8489 6.58059 7.80998 6.61658 7.78153L7.91305 6.76287ZM8.976 3.60758C9.25918 3.44854 9.57995 3.21568 9.9611 2.93988L11.1287 2.09301C11.7068 2.39338 12.238 2.77632 12.7057 3.22978L12.3393 4.63563C12.2185 5.1 12.1172 5.48854 12.0696 5.81534C12.0426 5.98617 12.0336 6.15935 12.0427 6.33205L10.202 7.11517C10.1595 7.07049 10.114 7.02878 10.0658 6.99036L8.76931 5.97103C8.6964 5.91381 8.61714 5.86517 8.5331 5.82608V3.80621C8.68476 3.75789 8.83105 3.68878 8.976 3.60758ZM7.59162 2.71978C7.36816 2.58758 7.09839 2.38425 6.69442 2.07758L6.10188 1.62797C6.73236 1.43781 7.38739 1.34149 8.04592 1.3421C8.73845 1.3421 9.40681 1.44746 10.0356 1.64274L9.39406 2.10778C8.98338 2.40505 8.70959 2.60301 8.48345 2.72984C8.26871 2.85063 8.14322 2.88016 8.03652 2.87882C7.92983 2.87747 7.80501 2.84526 7.59229 2.71978M12.7339 7.60974C12.9808 7.82179 13.3083 8.04458 13.6975 8.30897L14.684 8.97868C14.5709 9.80529 14.3032 10.6032 13.8948 11.3307H12.648C12.1816 11.3307 11.7891 11.3307 11.4676 11.3683C11.2961 11.3864 11.1271 11.4233 10.9637 11.4784L9.89668 10.2101C9.92714 10.1477 9.95272 10.0831 9.97318 10.0168L10.4832 8.32105C10.5078 8.23784 10.5234 8.15396 10.5302 8.06941L12.4037 7.2722C12.5004 7.39209 12.6104 7.50438 12.7339 7.60907M9.93695 12.4997C9.80206 12.799 9.67792 13.1801 9.53029 13.6365L9.19745 14.6645C8.47578 14.7903 7.73838 14.7971 7.01451 14.6846L6.67496 13.6365C6.52733 13.1801 6.40318 12.799 6.2683 12.499C6.20175 12.3503 6.12179 12.2078 6.02941 12.0736L6.96217 10.8529C7.05299 10.8753 7.14649 10.8865 7.24267 10.8865H8.81763C8.92053 10.8865 9.02051 10.8737 9.11759 10.8482L10.1638 12.091C10.0765 12.2202 10.0006 12.3567 9.93695 12.499M5.72609 13.9733C5.56705 13.4835 5.46035 13.156 5.3503 12.9144C5.24629 12.6829 5.16039 12.5789 5.0698 12.5118C4.98122 12.446 4.86178 12.3964 4.6202 12.3682C4.36453 12.338 4.03101 12.3373 3.52839 12.3373H2.8862C3.67102 13.2849 4.70127 13.9985 5.86433 14.4001L5.72609 13.9733ZM11.5851 12.3682C11.8407 12.338 12.1742 12.3373 12.6769 12.3373H13.2036C12.4489 13.2488 11.4666 13.9444 10.3564 14.3538L10.4792 13.9733C10.6382 13.4835 10.7449 13.156 10.8549 12.9144C10.959 12.6829 11.0449 12.5789 11.1354 12.5118C11.224 12.446 11.3435 12.3964 11.5851 12.3682ZM13.0654 5.95895C13.1043 5.69522 13.1909 5.36104 13.3204 4.86245L13.5036 4.15784C14.2651 5.22464 14.6961 6.4918 14.743 7.80166L14.2867 7.4923C13.8673 7.20711 13.5888 7.0172 13.3909 6.84675C13.203 6.68503 13.1271 6.57229 13.0862 6.46224C13.0446 6.35017 13.0292 6.21193 13.0661 5.95895" fill="white"/>
</svg>
