<svg width="17" height="17" viewBox="0 0 17 17" fill="none" xmlns="http://www.w3.org/2000/svg">
<path d="M11.3643 11.4918L10.8273 10.5789L11.8073 7.64554L12.7537 7.33005L13.425 7.83349V7.92746C13.425 7.97445 13.4451 8.01472 13.4451 8.055C13.4451 9.37736 13.0021 10.5453 12.1228 11.5522L11.3643 11.4918ZM6.54469 10.0687L5.62507 7.36361L8.055 5.65864L10.4849 7.36361L9.56531 10.0687H6.54469ZM8.055 13.4451C7.4643 13.4451 6.90716 13.3512 6.37687 13.1632L5.91371 12.1496L6.35674 11.4112H9.78682L10.1963 12.1496L9.73312 13.1632C9.20284 13.3512 8.6457 13.4451 8.055 13.4451ZM3.98722 11.5522C3.63146 11.136 3.32269 10.5789 3.0609 9.90094C2.79911 9.21626 2.66486 8.59871 2.66486 8.055C2.66486 8.01472 2.685 7.97445 2.685 7.92746V7.83349L3.35625 7.33005L4.30271 7.64554L5.28274 10.5789L4.74574 11.4918L3.98722 11.5522ZM7.38375 3.55091V4.49066L4.69875 6.35002L3.79927 6.0681L3.51735 5.1552C3.8127 4.69875 4.24901 4.2423 4.82629 3.79927C5.40356 3.35625 5.95399 3.06761 6.47756 2.91994L7.38375 3.55091ZM9.63244 2.91994C10.156 3.06761 10.7064 3.35625 11.2837 3.79927C11.861 4.2423 12.2973 4.69875 12.5926 5.1552L12.3107 6.0681L11.4112 6.35674L8.72625 4.49737V3.55091L9.63244 2.91994ZM3.30926 3.30926C2.01375 4.62491 1.3425 6.20906 1.3425 8.055C1.3425 9.90094 2.01375 11.4851 3.30926 12.8007C4.60477 14.1164 6.20906 14.7675 8.055 14.7675C9.90094 14.7675 11.4851 14.0962 12.8007 12.8007C14.1164 11.5052 14.7675 9.90094 14.7675 8.055C14.7675 6.20906 14.0962 4.62491 12.8007 3.30926C11.5052 1.99361 9.90094 1.3425 8.055 1.3425C6.20906 1.3425 4.62491 2.01375 3.30926 3.30926Z" fill="white"/>
</svg>
