<svg width="17" height="17" viewBox="0 0 17 17" fill="none" xmlns="http://www.w3.org/2000/svg">
<path d="M12.4853 14.7675L8.57522 10.8742L8.10534 11.3441C7.84803 11.6014 7.55447 11.7972 7.22466 11.9315C6.89486 12.0657 6.55632 12.1328 6.20906 12.1328C5.8618 12.1328 5.52058 12.0657 5.18541 11.9315C4.85023 11.7972 4.55376 11.6014 4.296 11.3441L1.45997 8.49131C1.20266 8.234 1.00687 7.94044 0.872624 7.61063C0.738374 7.28082 0.671249 6.94229 0.671249 6.59503C0.671249 6.24777 0.738374 5.90946 0.872624 5.5801C1.00687 5.25074 1.20266 4.95696 1.45997 4.69875L3.35625 2.80247C3.61356 2.54516 3.90735 2.34937 4.2376 2.21512C4.56786 2.08087 4.90617 2.01375 5.25253 2.01375C5.5989 2.01375 5.93743 2.08087 6.26813 2.21512C6.59883 2.34937 6.89239 2.54516 7.14881 2.80247L10.0016 5.6385C10.2589 5.89581 10.4547 6.19228 10.589 6.5279C10.7232 6.86353 10.7903 7.20475 10.7903 7.55156C10.7903 7.89837 10.7232 8.23691 10.589 8.56716C10.4547 8.89742 10.2589 9.19098 10.0016 9.44784L9.53175 9.91772L13.425 13.8277L12.4853 14.7675ZM3.47372 7.45087C3.61916 7.45087 3.73953 7.40344 3.83485 7.30857C3.93017 7.2137 3.9776 7.09332 3.97716 6.94744C3.97671 6.80155 3.92927 6.6814 3.83485 6.58697C3.74043 6.49255 3.62005 6.44489 3.47372 6.444C3.32739 6.4431 3.20723 6.49076 3.11326 6.58697C3.01928 6.68319 2.97162 6.80334 2.97028 6.94744C2.96894 7.09153 3.0166 7.21191 3.11326 7.30857C3.20992 7.40523 3.33007 7.45266 3.47372 7.45087ZM4.54772 6.39365C4.69316 6.39365 4.81353 6.34622 4.90885 6.25135C5.00417 6.15648 5.0516 6.0361 5.05116 5.89022C5.05071 5.74433 5.00305 5.62418 4.90818 5.52976C4.81331 5.43533 4.69316 5.38767 4.54772 5.38678C4.40228 5.38588 4.28213 5.43354 4.18726 5.52976C4.09239 5.62597 4.04473 5.74612 4.04428 5.89022C4.04383 6.03431 4.09149 6.15469 4.18726 6.25135C4.28302 6.34801 4.40318 6.39544 4.54772 6.39365ZM4.66519 8.64234C4.81062 8.64234 4.931 8.59468 5.02632 8.49937C5.12164 8.40405 5.16907 8.2839 5.16862 8.13891C5.16818 7.99392 5.12052 7.87376 5.02565 7.77844C4.93078 7.68313 4.81062 7.63547 4.66519 7.63547C4.51975 7.63547 4.3996 7.68313 4.30473 7.77844C4.20986 7.87376 4.1622 7.99392 4.16175 8.13891C4.1613 8.2839 4.20896 8.40427 4.30473 8.50004C4.40049 8.5958 4.52064 8.64324 4.66519 8.64234ZM5.60494 5.31966C5.75037 5.31966 5.87075 5.272 5.96607 5.17668C6.06139 5.08136 6.10882 4.96121 6.10838 4.81622C6.10793 4.67123 6.06027 4.55107 5.9654 4.45576C5.87053 4.36044 5.75037 4.31278 5.60494 4.31278C5.4595 4.31278 5.33935 4.36044 5.24448 4.45576C5.14961 4.55107 5.10195 4.67123 5.1015 4.81622C5.10105 4.96121 5.14871 5.08158 5.24448 5.17735C5.34024 5.27311 5.46039 5.32055 5.60494 5.31966ZM5.73919 7.58512C5.88462 7.58512 6.00478 7.53746 6.09965 7.44215C6.19452 7.34683 6.24218 7.22668 6.24262 7.08169C6.24307 6.9367 6.19541 6.81654 6.09965 6.72122C6.00388 6.62591 5.88373 6.57825 5.73919 6.57825C5.59465 6.57825 5.47449 6.62591 5.37873 6.72122C5.28296 6.81654 5.2353 6.9367 5.23575 7.08169C5.2362 7.22668 5.28386 7.34705 5.37873 7.44282C5.4736 7.53858 5.59375 7.58602 5.73919 7.58512ZM5.83987 9.83381C5.98531 9.83381 6.10569 9.78615 6.20101 9.69083C6.29632 9.59552 6.34376 9.47536 6.34331 9.33037C6.34286 9.18538 6.29543 9.06523 6.20101 8.96991C6.10658 8.87459 5.98621 8.82694 5.83987 8.82694C5.69354 8.82694 5.57339 8.87459 5.47941 8.96991C5.38544 9.06523 5.33778 9.18538 5.33644 9.33037C5.33509 9.47536 5.38275 9.59574 5.47941 9.69151C5.57607 9.78727 5.69623 9.83471 5.83987 9.83381ZM6.79641 6.51112C6.94184 6.51112 7.06222 6.46347 7.15754 6.36815C7.25286 6.27283 7.30029 6.15268 7.29984 6.00769C7.2994 5.8627 7.25174 5.74254 7.15687 5.64722C7.062 5.55191 6.94184 5.50425 6.79641 5.50425C6.65097 5.50425 6.53082 5.55191 6.43595 5.64722C6.34107 5.74254 6.29342 5.8627 6.29297 6.00769C6.29252 6.15268 6.34018 6.27305 6.43595 6.36882C6.53171 6.46458 6.65186 6.51202 6.79641 6.51112ZM6.91388 8.75981C7.05931 8.75981 7.17969 8.71215 7.27501 8.61683C7.37033 8.52152 7.41776 8.40136 7.41731 8.25637C7.41686 8.11138 7.36921 7.99123 7.27434 7.89591C7.17947 7.80059 7.05931 7.75294 6.91388 7.75294C6.76844 7.75294 6.64828 7.80059 6.55341 7.89591C6.45854 7.99123 6.41088 8.11138 6.41044 8.25637C6.40999 8.40136 6.45765 8.52174 6.55341 8.61751C6.64918 8.71327 6.76933 8.76071 6.91388 8.75981ZM7.98787 7.68581C8.13331 7.68581 8.25369 7.63838 8.34901 7.54351C8.44432 7.44864 8.49176 7.32826 8.49131 7.18237C8.49086 7.03649 8.44321 6.91634 8.34834 6.82191C8.25347 6.72749 8.13331 6.67983 7.98787 6.67894C7.84244 6.67804 7.72228 6.7257 7.62741 6.82191C7.53254 6.91813 7.48488 7.03828 7.48444 7.18237C7.48399 7.32647 7.53165 7.44685 7.62741 7.54351C7.72318 7.64017 7.84333 7.6876 7.98787 7.68581ZM13.0894 6.04125C12.4405 6.04125 11.8867 5.8119 11.428 5.35322C10.9693 4.89453 10.74 4.34075 10.74 3.69187C10.74 3.043 10.9693 2.48922 11.428 2.03053C11.8867 1.57184 12.4405 1.3425 13.0894 1.3425C13.7382 1.3425 14.292 1.57184 14.7507 2.03053C15.2094 2.48922 15.4388 3.043 15.4388 3.69187C15.4388 4.34075 15.2094 4.89453 14.7507 5.35322C14.292 5.8119 13.7382 6.04125 13.0894 6.04125Z" fill="white"/>
</svg>
