<svg width="17" height="17" viewBox="0 0 17 17" fill="none" xmlns="http://www.w3.org/2000/svg">
<path d="M2.685 11.4113L6.04125 12.0825L6.54469 11.0756M10.0687 14.0963V11.4113L7.38375 9.39751L8.055 5.37001M8.055 2.68501C8.055 2.86304 8.12572 3.03378 8.2516 3.15966C8.37749 3.28554 8.54822 3.35626 8.72625 3.35626C8.90427 3.35626 9.07501 3.28554 9.20089 3.15966C9.32678 3.03378 9.3975 2.86304 9.3975 2.68501C9.3975 2.50699 9.32678 2.33625 9.20089 2.21037C9.07501 2.08448 8.90427 2.01376 8.72625 2.01376C8.54822 2.01376 8.37749 2.08448 8.2516 2.21037C8.12572 2.33625 8.055 2.50699 8.055 2.68501Z" stroke="white" stroke-width="2" stroke-linecap="round" stroke-linejoin="round"/>
<path d="M4.69875 8.05503V6.04128L8.055 5.37003L10.0687 7.38378L12.0825 8.05503" stroke="white" stroke-width="2" stroke-linecap="round" stroke-linejoin="round"/>
</svg>
