<svg width="17" height="17" viewBox="0 0 17 17" fill="none" xmlns="http://www.w3.org/2000/svg">
<path d="M8.02448 1.06391C7.96679 1.06353 7.9091 1.06384 7.85142 1.06485C7.63966 1.06926 7.42784 1.08389 7.21725 1.10714C7.22772 1.11236 7.23436 1.11721 7.23203 1.12092L6.44337 2.36183L8.76884 3.91736L8.76491 3.92327L10.9871 3.93208L11.6735 2.49458L10.7875 1.63616C10.2882 1.42208 9.76591 1.26604 9.23096 1.17111C8.83293 1.10063 8.42871 1.06538 8.02451 1.06391H8.02448ZM6.00686 2.77676L3.68928 3.93403L3.25466 7.0304L4.87019 8.08941L7.83874 6.72264L8.30678 4.31558L6.00689 2.77676H6.00686ZM12.1848 2.78758L11.5162 4.18777L12.6725 6.47589L14.6253 7.70003L14.9812 7.0304C14.9883 7.0349 14.9954 7.04308 15.0019 7.05399C14.9776 6.89812 14.9481 6.74271 14.9135 6.58888C14.7106 5.6893 14.3285 4.82805 13.7965 4.07264C13.5111 3.66762 13.1821 3.293 12.8181 2.95564L12.1848 2.78755L12.1848 2.78758ZM2.66177 3.51127C2.44447 3.76441 2.24464 4.03233 2.06588 4.31363C1.57264 5.08968 1.23395 5.96534 1.07672 6.8721C1.00015 7.31456 0.966217 7.76336 0.975408 8.21231L1.61257 8.37259L2.65185 7.09827L3.10715 3.85537L2.66177 3.51127ZM12.5014 7.06189L10.7453 8.46994L10.6361 11.6508L11.8829 12.3155L14.3116 10.7551L14.4503 8.27722L14.4473 8.28216L12.5014 7.06186L12.5014 7.06189ZM8.06979 7.26346L5.11105 8.62626L5.07273 11.0373L7.87798 12.8426L10.0471 11.6961L10.1552 8.49455L8.06975 7.26346H8.06979ZM1.01474 8.82883C1.04337 9.09427 1.08679 9.35794 1.14551 9.61841C1.3483 10.518 1.73138 11.3792 2.26352 12.1346C2.38538 12.3076 2.51586 12.4746 2.65286 12.6361L2.35791 11.1209L2.36181 11.1199L1.51132 8.95368L1.01474 8.82883ZM4.70204 11.4984L3.08059 11.7551L3.39918 13.3942C3.66897 13.63 3.95627 13.8449 4.25861 14.0372C4.71941 14.3297 5.21231 14.5683 5.72761 14.7482L7.69812 14.3174L7.56144 13.3381L4.70207 11.4983L4.70204 11.4984ZM14.2182 11.5142L12.1975 12.8121L10.876 14.3027L11.0147 14.4964C11.3931 14.322 11.7563 14.1143 12.0973 13.8759C12.8515 13.3486 13.5007 12.6707 13.994 11.8946C14.0729 11.7704 14.1472 11.6432 14.2181 11.5141L14.2182 11.5142ZM10.3549 14.5869L7.83962 14.8897L7.02254 15.0677C7.87187 15.1935 8.7442 15.1635 9.58104 14.9792C9.87719 14.914 10.1689 14.8285 10.4542 14.7255L10.3549 14.5869L10.3549 14.5869Z" fill="white"/>
</svg>
