<svg width="16" height="16" viewBox="0 0 16 16" fill="none" xmlns="http://www.w3.org/2000/svg">
<path d="M15.5086 9.26564C16.493 6.83439 16.0023 3.94376 14.0336 1.97189C11.4117 -0.656238 7.1586 -0.656238 4.53672 1.97189L2.78672 3.72501L9.3961 10.3344C10.8367 8.39376 13.5055 7.91564 15.5086 9.26564ZM8.69922 11.7563L1.81172 4.87189C0.958598 6.28751 1.1336 8.15314 2.35235 9.37501L3.43047 10.4563L0.211723 13.25C-0.0570273 13.4844 -0.0726523 13.8969 0.180473 14.15L1.84922 15.8219C2.09922 16.075 2.51172 16.0594 2.7461 15.7906L5.53672 12.5625L6.65235 13.6781C7.26797 14.2938 8.0461 14.6313 8.84922 14.7188C8.62735 14.1875 8.50547 13.6063 8.50547 12.9969C8.50235 12.5656 8.5836 12.1531 8.69922 11.7563ZM13.0023 10C11.3461 10 10.0023 11.3438 10.0023 13C10.0023 14.6563 11.3461 16 13.0023 16C14.6586 16 16.0023 14.6563 16.0023 13C16.0023 11.3438 14.6586 10 13.0023 10Z" fill="black"/>
</svg>
