<svg width="24" height="24" viewBox="0 0 24 24" fill="none" xmlns="http://www.w3.org/2000/svg">
<path d="M20 18C19.4696 18 18.9609 18.2107 18.5858 18.5858C18.2107 18.9608 18 19.4695 18 20C18 20.5304 18.2107 21.0391 18.5858 21.4142C18.9609 21.7893 19.4696 22 20 22C20.5304 22 21.0391 21.7893 21.4142 21.4142C21.7893 21.0391 22 20.5304 22 20C22 19.4695 21.7893 18.9608 21.4142 18.5858C21.0391 18.2107 20.5304 18 20 18ZM19.08 15.08C22.48 11.68 22.97 6.62998 20.17 3.82998C17.37 1.02998 12.32 1.51998 8.92 4.91998C6.16 7.67998 5.32 11.52 6.59 14.37C6.58 14.78 6.52 15.18 6.35 15.6C6.08 16.11 5.8 16.61 5.49 17.1L1.79 20.8H1.8L3.19 22.2H3.2L6.89 18.52C7.38 18.21 7.88 17.93 8.39 17.66C8.81 17.49 9.22 17.43 9.63 17.42C10.5 17.81 11.45 18 12.44 18C14.71 18 17.15 17.01 19.06 15.09L19.08 15.08ZM12.36 16L13 15.36L13.54 15.9C13.14 15.97 12.74 16.01 12.35 16H12.36ZM8.1 10.46L8.64 11L8 11.64C8 11.25 8.03 10.85 8.1 10.45V10.46ZM15 5.35998L16.65 7.00998L15 8.65998L13.35 7.00998L15 5.35998ZM13 6.64998L11.63 5.27998C12.35 4.78998 13.12 4.44998 13.88 4.23998L14.65 5.00998L13 6.65998V6.64998ZM19.9 9.54998L19.36 9.00998L20 8.36998C20 8.75998 19.97 9.15998 19.9 9.55998V9.54998ZM13 14.65L11.35 13L13 11.35L14.65 13L13 14.65ZM15 13.36L16.37 14.73C15.65 15.21 14.88 15.56 14.12 15.77L13.35 15L15 13.35V13.36ZM9.43 14.93L11 13.36L12.65 15.01L11.71 15.95C10.85 15.83 10.07 15.49 9.44 14.93H9.43ZM9.08 14.58C8.52 13.95 8.18 13.16 8.06 12.31L9.01 11.36L10.66 13.01L9.09 14.58H9.08ZM13.36 11.01L15.01 9.35998L16.66 11.01L15.01 12.66L13.36 11.01ZM15.36 9.00998L17.01 7.35998L18.66 9.00998L17.01 10.66L15.36 9.00998ZM19.01 9.35998L19.78 10.13C19.57 10.89 19.22 11.66 18.74 12.38L17.37 11.01L19.02 9.35998H19.01ZM19.01 8.64998L17.36 6.99998L18.93 5.42998C19.49 6.05998 19.83 6.84998 19.95 7.69998L19 8.64998H19.01ZM17.01 6.64998L15.36 4.99998L16.3 4.05998C17.16 4.17998 17.93 4.51998 18.57 5.07998L17.01 6.63998V6.64998ZM14.66 8.99998L13.01 10.65L11.36 8.99998L13.01 7.34998L14.66 8.99998ZM12.66 11L11.01 12.65L9.36 11L11.01 9.34998L12.66 11ZM9.01 10.65L8.24 9.87998C8.45 9.11998 8.8 8.34998 9.28 7.62998L10.65 8.99998L9 10.65H9.01ZM16.79 14.43L15.36 13L17.01 11.35L18.44 12.78C18.21 13.08 17.96 13.38 17.68 13.66C17.4 13.94 17.1 14.19 16.8 14.42L16.79 14.43ZM15.55 3.99998H15.65L15.01 4.63998L14.47 4.09998C14.83 4.02998 15.2 3.98998 15.55 3.98998V3.99998ZM11.23 5.57998L12.66 7.00998L11.01 8.65998L9.58 7.22998C9.81 6.92998 10.06 6.62998 10.34 6.34998C10.62 6.06998 10.92 5.81998 11.22 5.58998L11.23 5.57998Z" fill="black"/>
</svg>
