<svg width="17" height="17" viewBox="0 0 17 17" fill="none" xmlns="http://www.w3.org/2000/svg">
<path d="M8.06641 8.72155C9.35723 8.75243 10.5964 9.1243 11.6663 9.77541C9.72708 11.8127 6.97563 13.2256 4.17182 13.5311C3.58096 13.1119 3.06186 12.5998 2.63466 12.0147C4.70009 11.6925 6.5863 10.6051 7.89121 8.94508L8.06641 8.72155ZM13.7204 11.6563C13.1146 12.6102 12.2777 13.3956 11.2873 13.9395C10.2968 14.4834 9.18497 14.7682 8.055 14.7675C7.22032 14.7682 6.39284 14.6131 5.61501 14.3104C8.2349 13.7257 10.7011 12.2926 12.4953 10.3634C12.9557 10.7419 13.3672 11.1762 13.7204 11.6563ZM14.5151 7.62406L14.5165 7.6254L14.7648 7.87578C14.7666 7.93529 14.7675 7.99503 14.7675 8.055C14.7679 8.95678 14.5867 9.84941 14.2345 10.6796C13.4836 9.77776 12.5487 9.0468 11.4923 8.53569C10.4359 8.02458 9.28253 7.74512 8.10937 7.71602C7.55976 6.7592 7.26981 5.67532 7.26829 4.57188C9.98575 4.62312 12.5798 5.71568 14.5151 7.62406ZM7.3475 3.56635C7.42734 3.06538 7.5673 2.57586 7.76435 2.1084L8.08655 1.3425C11.1636 1.3566 13.7519 3.4415 14.5292 6.27484C12.5113 4.58396 9.97876 3.62893 7.34683 3.56635M7.09981 8.32283C6.48338 9.10726 5.71168 9.75602 4.833 10.2285C3.77686 7.70026 3.70029 4.86927 4.6182 2.28762C5.33685 1.85752 6.13032 1.56714 6.95684 1.43177L6.83601 1.71773C6.40052 2.75154 6.20813 3.87152 6.27365 4.9914C6.33917 6.11128 6.66085 7.20119 7.21392 8.17717L7.09981 8.32283ZM3.2616 3.35625C2.02975 4.60975 1.34042 6.29752 1.3425 8.055C1.3425 9.14041 1.60026 10.1661 2.05805 11.0736C2.69842 11.0112 3.32202 10.8655 3.9154 10.644C2.94538 8.34025 2.71801 5.7913 3.26496 3.35222L3.2616 3.35625Z" fill="white"/>
</svg>
